<svg width="27" height="27" xmlns="http://www.w3.org/2000/svg" xmlns:xlink="http://www.w3.org/1999/xlink" xml:space="preserve" overflow="hidden"><g transform="translate(-989 -161)"><path d="M1009.25 176.75 1009.25 173.375 1005.88 173.375 1005.88 171.125 1009.25 171.125 1009.25 167.75 1011.5 167.75 1011.5 171.125 1014.88 171.125 1014.88 173.375 1011.5 173.375 1011.5 176.75 1009.25 176.75ZM999.125 174.5C997.888 174.5 996.828 174.059 995.947 173.178 995.066 172.297 994.625 171.238 994.625 170 994.625 168.762 995.066 167.703 995.947 166.822 996.828 165.941 997.888 165.5 999.125 165.5 1000.36 165.5 1001.42 165.941 1002.3 166.822 1003.18 167.703 1003.62 168.762 1003.62 170 1003.62 171.238 1003.18 172.297 1002.3 173.178 1001.42 174.059 1000.36 174.5 999.125 174.5ZM990.125 183.5 990.125 180.35C990.125 179.712 990.289 179.127 990.617 178.592 990.945 178.058 991.381 177.65 991.925 177.369 993.087 176.787 994.269 176.352 995.469 176.061 996.669 175.77 997.888 175.625 999.125 175.625 1000.36 175.625 1001.58 175.77 1002.78 176.061 1003.98 176.352 1005.16 176.787 1006.33 177.369 1006.87 177.65 1007.3 178.058 1007.63 178.592 1007.96 179.127 1008.12 179.712 1008.12 180.35L1008.12 183.5 990.125 183.5ZM992.375 181.25 1005.88 181.25 1005.88 180.35C1005.88 180.144 1005.82 179.956 1005.72 179.788 1005.62 179.619 1005.48 179.487 1005.31 179.394 1004.3 178.887 1003.28 178.508 1002.25 178.255 1001.22 178.002 1000.17 177.875 999.125 177.875 998.075 177.875 997.034 178.002 996.003 178.255 994.972 178.508 993.95 178.887 992.938 179.394 992.769 179.487 992.633 179.619 992.53 179.788 992.427 179.956 992.375 180.144 992.375 180.35L992.375 181.25ZM999.125 172.25C999.744 172.25 1000.27 172.03 1000.71 171.589 1001.15 171.148 1001.38 170.619 1001.38 170 1001.38 169.381 1001.15 168.852 1000.71 168.411 1000.27 167.97 999.744 167.75 999.125 167.75 998.506 167.75 997.977 167.97 997.536 168.411 997.095 168.852 996.875 169.381 996.875 170 996.875 170.619 997.095 171.148 997.536 171.589 997.977 172.03 998.506 172.25 999.125 172.25Z" fill="#FFC5C7"/></g></svg>