<svg width="163" height="163" xmlns="http://www.w3.org/2000/svg" xmlns:xlink="http://www.w3.org/1999/xlink" xml:space="preserve" overflow="hidden"><defs><clipPath id="clip0"><rect x="1109" y="1450" width="163" height="163"/></clipPath></defs><g clip-path="url(#clip0)" transform="translate(-1109 -1450)"><path d="M1109 1458.89C1109 1453.98 1112.98 1450 1117.89 1450L1263.1 1450C1268.02 1450 1272 1453.98 1272 1458.89L1272 1604.1C1272 1609.02 1268.02 1613 1263.1 1613L1117.89 1613C1112.98 1613 1109 1609.02 1109 1604.1Z" fill="#D9D9D9" fill-rule="evenodd" fill-opacity="0.6"/><g><g><g><path d="M1163.25 1571.92C1159.47 1571.92 1156.25 1570.59 1153.6 1567.94 1150.95 1565.29 1149.63 1562.08 1149.63 1558.29L1149.63 1494.71C1149.63 1490.92 1150.95 1487.71 1153.6 1485.06 1156.25 1482.41 1159.47 1481.08 1163.25 1481.08L1213.21 1481.08 1213.21 1553.75 1163.25 1553.75C1161.96 1553.75 1160.88 1554.19 1160.01 1555.06 1159.14 1555.93 1158.71 1557 1158.71 1558.29 1158.71 1559.58 1159.14 1560.66 1160.01 1561.53 1160.88 1562.4 1161.96 1562.83 1163.25 1562.83L1222.29 1562.83 1222.29 1490.17 1231.38 1490.17 1231.38 1571.92 1163.25 1571.92ZM1176.88 1544.67 1204.13 1544.67 1204.13 1490.17 1176.88 1490.17 1176.88 1544.67ZM1167.79 1544.67 1167.79 1490.17 1163.25 1490.17C1161.96 1490.17 1160.88 1490.6 1160.01 1491.47 1159.14 1492.34 1158.71 1493.42 1158.71 1494.71L1158.71 1545.46C1159.47 1545.23 1160.2 1545.05 1160.92 1544.89 1161.64 1544.74 1162.42 1544.67 1163.25 1544.67L1167.79 1544.67ZM1158.71 1490.17 1158.71 1545.46 1158.71 1490.17Z" fill="#595959"/></g></g></g></g></svg>