<svg width="162" height="163" xmlns="http://www.w3.org/2000/svg" xmlns:xlink="http://www.w3.org/1999/xlink" xml:space="preserve" overflow="hidden"><defs><clipPath id="clip0"><rect x="2694" y="1438" width="162" height="163"/></clipPath></defs><g clip-path="url(#clip0)" transform="translate(-2694 -1438)"><path d="M2694 1446.84C2694 1441.96 2697.96 1438 2702.84 1438L2847.16 1438C2852.04 1438 2856 1441.96 2856 1446.84L2856 1592.16C2856 1597.04 2852.04 1601 2847.16 1601L2702.84 1601C2697.96 1601 2694 1597.04 2694 1592.16Z" fill="#D9D9D9" fill-rule="evenodd" fill-opacity="0.6"/><g><g><g><path d="M2756.33 1555.83C2753.84 1555.83 2751.7 1554.94 2749.92 1553.17 2748.14 1551.39 2747.25 1549.25 2747.25 1546.75L2747.25 1533.12 2760.88 1533.12 2760.88 1522.91C2758.23 1522.75 2755.71 1522.17 2753.32 1521.15 2750.94 1520.12 2748.76 1518.59 2746.8 1516.55L2746.8 1511.55 2741.57 1511.55 2726.81 1496.79C2729.54 1493.31 2732.91 1490.85 2736.92 1489.41 2740.93 1487.97 2744.98 1487.25 2749.07 1487.25 2751.11 1487.25 2753.1 1487.41 2755.03 1487.71 2756.96 1488.01 2758.91 1488.58 2760.88 1489.41L2760.88 1483.17 2815.38 1483.17 2815.38 1542.21C2815.38 1545.99 2814.05 1549.21 2811.4 1551.86 2808.75 1554.51 2805.53 1555.83 2801.75 1555.83L2756.33 1555.83ZM2769.96 1533.12 2797.21 1533.12 2797.21 1542.21C2797.21 1543.5 2797.64 1544.57 2798.51 1545.44 2799.38 1546.31 2800.46 1546.75 2801.75 1546.75 2803.04 1546.75 2804.12 1546.31 2804.99 1545.44 2805.86 1544.57 2806.29 1543.5 2806.29 1542.21L2806.29 1492.25 2769.96 1492.25 2769.96 1494.97 2797.21 1522.22 2797.21 1528.58 2790.85 1528.58 2777.91 1515.64 2777 1516.55C2775.94 1517.61 2774.82 1518.55 2773.65 1519.39 2772.48 1520.22 2771.25 1520.86 2769.96 1521.32L2769.96 1533.12ZM2745.43 1502.47 2755.88 1502.47 2755.88 1512.23C2756.79 1512.84 2757.73 1513.26 2758.72 1513.48 2759.7 1513.71 2760.72 1513.82 2761.78 1513.82 2763.52 1513.82 2765.09 1513.56 2766.5 1513.03 2767.9 1512.5 2769.28 1511.55 2770.64 1510.19L2771.55 1509.28 2765.19 1502.92C2762.99 1500.73 2760.53 1499.08 2757.81 1497.98 2755.08 1496.89 2752.17 1496.34 2749.07 1496.34 2747.55 1496.34 2746.11 1496.45 2744.75 1496.68 2743.39 1496.91 2742.03 1497.25 2740.66 1497.7L2745.43 1502.47ZM2788.12 1542.21 2756.33 1542.21 2756.33 1546.75 2788.81 1546.75C2788.58 1546.07 2788.41 1545.35 2788.3 1544.59 2788.18 1543.84 2788.12 1543.04 2788.12 1542.21ZM2756.33 1546.75 2756.33 1542.21 2756.33 1546.75Z" fill="#595959"/></g></g></g></g></svg>