<svg width="163" height="163" xmlns="http://www.w3.org/2000/svg" xmlns:xlink="http://www.w3.org/1999/xlink" xml:space="preserve" overflow="hidden"><g transform="translate(-2131 -1441)"><path d="M2131 1449.89C2131 1444.98 2134.98 1441 2139.9 1441L2285.1 1441C2290.02 1441 2294 1444.98 2294 1449.89L2294 1595.1C2294 1600.02 2290.02 1604 2285.1 1604L2139.9 1604C2134.98 1604 2131 1600.02 2131 1595.1Z" fill="#D9D9D9" fill-rule="evenodd" fill-opacity="0.6"/><g><g><g><path d="M2185.25 1540.67 2221.58 1540.67 2221.58 1531.58 2185.25 1531.58 2185.25 1540.67ZM2185.25 1522.5 2239.75 1522.5 2239.75 1513.42 2185.25 1513.42 2185.25 1522.5ZM2176.17 1558.83C2173.67 1558.83 2171.53 1557.94 2169.75 1556.17 2167.97 1554.39 2167.08 1552.25 2167.08 1549.75L2167.08 1495.25C2167.08 1492.75 2167.97 1490.61 2169.75 1488.84 2171.53 1487.06 2173.67 1486.17 2176.17 1486.17L2203.42 1486.17 2212.5 1495.25 2248.83 1495.25C2251.33 1495.25 2253.47 1496.14 2255.25 1497.92 2257.03 1499.7 2257.92 1501.84 2257.92 1504.33L2257.92 1549.75C2257.92 1552.25 2257.03 1554.39 2255.25 1556.17 2253.47 1557.94 2251.33 1558.83 2248.83 1558.83L2176.17 1558.83ZM2176.17 1549.75 2248.83 1549.75 2248.83 1504.33 2208.75 1504.33 2199.67 1495.25 2176.17 1495.25 2176.17 1549.75ZM2176.17 1549.75 2176.17 1495.25 2176.17 1549.75Z" fill="#595959"/></g></g></g></g></svg>