<svg width="561" height="562" xmlns="http://www.w3.org/2000/svg" xmlns:xlink="http://www.w3.org/1999/xlink" xml:space="preserve" overflow="hidden"><g transform="translate(-1919 -956)"><path d="M1919.42 987.076C1919.42 970.177 1933.1 956.479 1949.96 956.479L2448.85 956.479C2465.75 956.479 2479.42 970.177 2479.42 987.076L2479.42 1486.85C2479.42 1503.78 2465.75 1517.48 2448.85 1517.48L1949.96 1517.48C1933.1 1517.48 1919.42 1503.78 1919.42 1486.85Z" fill="#D9D9D9" fill-rule="evenodd" fill-opacity="0.6"/><path d="M2027.42 1377.48 2027.42 1346.24 2371.42 1346.24 2371.42 1377.48 2027.42 1377.48ZM2074.35 1330.63C2065.74 1330.63 2058.37 1327.57 2052.24 1321.45 2046.11 1315.33 2043.05 1307.98 2043.05 1299.42L2043.05 1127.69C2043.05 1119.1 2046.11 1111.74 2052.24 1105.62 2058.37 1099.5 2065.74 1096.48 2074.35 1096.48L2324.5 1096.48C2333.1 1096.48 2340.47 1099.5 2346.6 1105.62 2352.73 1111.74 2355.79 1119.1 2355.79 1127.69L2355.79 1299.42C2355.79 1307.98 2352.73 1315.33 2346.6 1321.45 2340.47 1327.57 2333.1 1330.63 2324.5 1330.63L2074.35 1330.63ZM2074.35 1299.42 2324.5 1299.42 2324.5 1127.69 2074.35 1127.69 2074.35 1299.42ZM2074.35 1299.42 2074.35 1127.69 2074.35 1299.42Z" fill="#595959" fill-rule="evenodd"/></g></svg>