<svg width="163" height="163" xmlns="http://www.w3.org/2000/svg" xmlns:xlink="http://www.w3.org/1999/xlink" xml:space="preserve" overflow="hidden"><defs><clipPath id="clip0"><rect x="1603" y="1441" width="163" height="163"/></clipPath></defs><g clip-path="url(#clip0)" transform="translate(-1603 -1441)"><path d="M1603 1449.89C1603 1444.98 1606.98 1441 1611.89 1441L1757.1 1441C1762.02 1441 1766 1444.98 1766 1449.89L1766 1595.1C1766 1600.02 1762.02 1604 1757.1 1604L1611.89 1604C1606.98 1604 1603 1600.02 1603 1595.1Z" fill="#D9D9D9" fill-rule="evenodd" fill-opacity="0.6"/><g><g><g><path d="M1639.54 1563.38 1639.54 1554.29 1739.46 1554.29 1739.46 1563.38 1639.54 1563.38ZM1653.17 1549.75C1650.67 1549.75 1648.53 1548.86 1646.75 1547.08 1644.97 1545.3 1644.08 1543.16 1644.08 1540.67L1644.08 1490.71C1644.08 1488.21 1644.97 1486.07 1646.75 1484.29 1648.53 1482.51 1650.67 1481.63 1653.17 1481.63L1725.83 1481.63C1728.33 1481.63 1730.47 1482.51 1732.25 1484.29 1734.03 1486.07 1734.92 1488.21 1734.92 1490.71L1734.92 1540.67C1734.92 1543.16 1734.03 1545.3 1732.25 1547.08 1730.47 1548.86 1728.33 1549.75 1725.83 1549.75L1653.17 1549.75ZM1653.17 1540.67 1725.83 1540.67 1725.83 1490.71 1653.17 1490.71 1653.17 1540.67ZM1653.17 1540.67 1653.17 1490.71 1653.17 1540.67Z" fill="#595959"/></g></g></g></g></svg>