<svg width="22" height="21" xmlns="http://www.w3.org/2000/svg" xmlns:xlink="http://www.w3.org/1999/xlink" xml:space="preserve" overflow="hidden"><g transform="translate(-1028 -164)"><path d="M10.5-1.75C9.28959-1.75 8.15209-1.97969 7.0875-2.43906 6.02291-2.89844 5.09687-3.52187 4.30937-4.30937 3.52187-5.09687 2.89844-6.02291 2.43906-7.0875 1.97969-8.15209 1.75-9.28959 1.75-10.5 1.75-11.7104 1.97969-12.8479 2.43906-13.9125 2.89844-14.9771 3.52187-15.9031 4.30937-16.6906 5.09687-17.4781 6.02291-18.1016 7.0875-18.5609 8.15209-19.0203 9.28959-19.25 10.5-19.25 11.7104-19.25 12.8479-19.0203 13.9125-18.5609 14.9771-18.1016 15.9031-17.4781 16.6906-16.6906 17.4781-15.9031 18.1016-14.9771 18.5609-13.9125 19.0203-12.8479 19.25-11.7104 19.25-10.5 19.25-9.28959 19.0203-8.15209 18.5609-7.0875 18.1016-6.02291 17.4781-5.09687 16.6906-4.30937 15.9031-3.52187 14.9771-2.89844 13.9125-2.43906 12.8479-1.97969 11.7104-1.75 10.5-1.75ZM10.5-3.5C11.2875-3.5 12.0458-3.6276 12.775-3.88281 13.5042-4.13803 14.175-4.50625 14.7875-4.9875L4.9875-14.7875C4.50625-14.175 4.13803-13.5042 3.88281-12.775 3.6276-12.0458 3.5-11.2875 3.5-10.5 3.5-8.54584 4.17812-6.89062 5.53437-5.53437 6.89062-4.17812 8.54584-3.5 10.5-3.5ZM16.0125-6.2125C16.4937-6.825 16.862-7.49584 17.1172-8.225 17.3724-8.95416 17.5-9.7125 17.5-10.5 17.5-12.4542 16.8219-14.1094 15.4656-15.4656 14.1094-16.8219 12.4542-17.5 10.5-17.5 9.7125-17.5 8.95416-17.3724 8.225-17.1172 7.49584-16.862 6.825-16.4937 6.2125-16.0125L16.0125-6.2125Z" fill="#FFC5C7" transform="matrix(1.04762 0 0 1 1028 185)"/></g></svg>