<svg width="1846" height="2936" xmlns="http://www.w3.org/2000/svg" xmlns:xlink="http://www.w3.org/1999/xlink" xml:space="preserve" overflow="hidden"><g transform="translate(-435 454)"><rect x="442" y="-447" width="1832" height="2922" stroke="#E4E5E5" stroke-width="13.75" stroke-miterlimit="8" fill="#A41016"/><g><g><g><path d="M175.176 255.693 101.051 157.167 22.5812 157.167 62.473 99.0049 0.0432001 0.0398429 103.217 56.4676 153.057 4.8153 153.923 98.5707 237.157 158.034 169.097 156.299Z" fill="#FFF1F2" fill-rule="evenodd" transform="matrix(1.00039 0 0 -1 1462.45 1069.58)"/><path d="M0.0374914 20.9149 519.254 20.9149C544.532 21.4025 554.394 11.6195 565.576 0.0375044 573.109 63.7688 545.096 82.7926 505.756 82.1266L0.938422 82.1266ZM1144.62 20.9149 625.397 20.9149C600.133 21.4025 590.264 11.6195 579.083 0.0375044 571.546 63.7688 599.57 82.7926 638.903 82.1266L1143.72 82.1266ZM1144.62 95.9998 649.695 95.9998C607.059 98.4468 582.242 85.4474 572.517 74.8235 572.431 75.0701 572.358 75.3133 572.287 75.5565 572.241 75.3133 572.197 75.0701 572.143 74.8235 562.419 85.4474 537.605 98.4468 494.965 95.9998L0.0374914 95.9998 0.938422 109.668 505.756 109.668C540.232 110.032 566.69 103.216 571.861 86.7123 576.312 102.896 604.563 110.031 638.903 109.668L1143.72 109.668ZM103.474 241.935C263.305 135.029 468.716 265.778 707.394 569.994 725.92 580.452 744.432 590.91 762.959 601.367L762.959 559.238C512.434 167.941 204.348 49.1001 103.474 241.935ZM494.494 1279.77C191.287 904.622 12.054 228.595 348.252 260.299 149.709 156.166 63.8922 248.107 77.0972 423.352 121.578 755.063 275.329 1033.39 494.494 1279.77ZM767.591 455.328 767.591 627.056 823.63 571.363 823.63 455.328ZM1000.03 455.33 1000.03 690.128 926.462 690.128 926.462 737.93 1123.49 737.93 1123.49 690.128 1050.09 690.128 1050.09 455.33ZM556.179 455.33 556.179 690.128 482.612 690.128 482.612 737.93 679.634 737.93 679.634 690.128 606.237 690.128 606.237 455.33ZM244.729 455.33 244.729 737.93 334.663 737.93C368.869 737.93 391.084 736.515 401.308 733.686 417.087 729.428 430.37 720.096 441.163 705.671 451.956 691.246 457.351 672.958 457.351 650.805 457.351 633.417 454.289 618.8 448.168 606.949 442.045 595.099 434.221 585.858 424.692 579.224 415.161 572.591 404.528 567.921 392.789 565.216L381.996 563.286 370.447 562.511 353.028 561.934 300.773 561.934 300.773 455.33ZM300.773 690.128 300.773 609.934 331.445 609.934C353.533 609.934 368.079 611.252 375.086 613.887 382.091 616.519 387.93 621.147 392.6 627.765 397.271 634.384 399.604 641.869 399.604 650.224 399.604 660.632 396.733 669.082 390.989 675.573 385.247 682.062 377.641 686.271 368.175 688.2L352.839 689.548 327.847 690.128ZM398.124 1103.6C505.801 1232.09 593.236 1337.07 700.252 1381.34 749.988 1401.92 860.841 1416.49 920.648 1320.92 957.094 1255.68 987.21 1119.09 904.127 816.072 974.899 927.585 1020.01 1151.34 999.934 1268.33 970.454 1400.37 900.23 1465.2 798.078 1445.63 667.023 1421.77 531.62 1313.18 398.124 1103.6Z" fill="#FFF1F2" fill-rule="evenodd" transform="matrix(1.00039 0 0 -1 785 1657)"/></g></g></g><path d="M698 202 698 115 785 27.9997 872.001 115 872.001 202 785 115Z" fill="#FFF1F2" fill-rule="evenodd"/><rect x="698" y="-451" width="174" height="563" fill="#FFF1F2"/></g></svg>