<svg width="15" height="15" xmlns="http://www.w3.org/2000/svg" xmlns:xlink="http://www.w3.org/1999/xlink" xml:space="preserve" overflow="hidden"><g transform="translate(-676 -529)"><path d="M681.25 539.625 683.5 537.375 685.75 539.625 686.625 538.75 684.375 536.5 686.625 534.25 685.75 533.375 683.5 535.625 681.25 533.375 680.375 534.25 682.625 536.5 680.375 538.75 681.25 539.625ZM683.5 542.75C682.635 542.75 681.823 542.586 681.062 542.258 680.302 541.93 679.641 541.484 679.078 540.922 678.516 540.359 678.07 539.698 677.742 538.938 677.414 538.177 677.25 537.365 677.25 536.5 677.25 535.635 677.414 534.823 677.742 534.062 678.07 533.302 678.516 532.641 679.078 532.078 679.641 531.516 680.302 531.07 681.062 530.742 681.823 530.414 682.635 530.25 683.5 530.25 684.365 530.25 685.177 530.414 685.938 530.742 686.698 531.07 687.359 531.516 687.922 532.078 688.484 532.641 688.93 533.302 689.258 534.062 689.586 534.823 689.75 535.635 689.75 536.5 689.75 537.365 689.586 538.177 689.258 538.938 688.93 539.698 688.484 540.359 687.922 540.922 687.359 541.484 686.698 541.93 685.938 542.258 685.177 542.586 684.365 542.75 683.5 542.75ZM683.5 541.5C684.896 541.5 686.078 541.016 687.047 540.047 688.016 539.078 688.5 537.896 688.5 536.5 688.5 535.104 688.016 533.922 687.047 532.953 686.078 531.984 684.896 531.5 683.5 531.5 682.104 531.5 680.922 531.984 679.953 532.953 678.984 533.922 678.5 535.104 678.5 536.5 678.5 537.896 678.984 539.078 679.953 540.047 680.922 541.016 682.104 541.5 683.5 541.5Z" fill="#BFBFBF"/></g></svg>