<svg width="72" height="72" xmlns="http://www.w3.org/2000/svg" xmlns:xlink="http://www.w3.org/1999/xlink" xml:space="preserve" overflow="hidden"><defs><clipPath id="clip0"><rect x="420" y="511" width="72" height="72"/></clipPath></defs><g clip-path="url(#clip0)" transform="translate(-420 -511)"><path d="M444.298 516.41 420 559.313 429.992 577.59 479.825 577.58 492 556.856 467.434 516.472 444.298 516.41ZM425.97 559.358 445.829 524.287 451.721 534.574 431.56 569.583 425.97 559.358ZM454.723 539.814 463.002 554.267 446.401 554.265 454.723 539.814ZM476.839 572.363 436.033 572.372 443.521 559.481 465.99 559.484 466.013 559.526 484.399 559.496 476.839 572.363ZM469.013 554.268 451.355 523.439 450.323 521.638 464.496 521.68 484.32 554.269 469.013 554.268Z" fill="#EC131C"/></g></svg>