<svg width="31" height="31" xmlns="http://www.w3.org/2000/svg" xmlns:xlink="http://www.w3.org/1999/xlink" xml:space="preserve" overflow="hidden"><g transform="translate(-440 -195)"><path d="M455.5 198.552C450.731 198.552 445.597 199.798 445.597 202.535L445.597 218.465C445.597 221.202 450.731 222.448 455.5 222.448 460.269 222.448 465.403 221.202 465.403 218.465L465.403 202.535C465.403 199.798 460.269 198.552 455.5 198.552ZM455.5 200.49C460.674 200.49 463.465 201.943 463.465 202.535 463.465 203.127 460.674 204.58 455.5 204.58 450.326 204.58 447.535 203.127 447.535 202.535 447.535 201.942 450.326 200.49 455.5 200.49ZM455.5 220.51C450.326 220.51 447.535 219.057 447.535 218.465L447.535 205.029C449.462 206.04 452.55 206.517 455.5 206.517 458.45 206.517 461.539 206.04 463.465 205.029L463.465 218.465C463.465 219.057 460.674 220.51 455.5 220.51Z" fill="#000000" fill-opacity="0.87"/><path d="M450.142 215.721 450.297 216.347C450.688 216.251 451.105 216.164 451.539 216.089L451.431 215.454C450.982 215.53 450.549 215.62 450.142 215.721Z" fill="#000000" fill-opacity="0.87"/><path d="M452.469 215.304 452.546 215.945C452.959 215.896 453.386 215.857 453.815 215.828L453.773 215.183C453.332 215.213 452.893 215.253 452.469 215.304Z" fill="#000000" fill-opacity="0.87"/><path d="M447.885 216.523 448.18 217.098C448.551 216.912 448.935 216.754 449.329 216.626L449.125 216.012C448.699 216.151 448.285 216.322 447.885 216.523Z" fill="#000000" fill-opacity="0.87"/><path d="M454.819 215.137 454.835 215.783C455.255 215.773 455.689 215.772 456.111 215.783L456.126 215.137C455.694 215.125 455.25 215.126 454.819 215.137Z" fill="#000000" fill-opacity="0.87"/><path d="M461.621 216.609C462.016 216.736 462.402 216.891 462.774 217.074L463.065 216.497C462.664 216.299 462.249 216.132 461.823 215.996Z" fill="#000000" fill-opacity="0.87"/><path d="M459.407 216.082C459.839 216.154 460.257 216.239 460.65 216.335L460.803 215.707C460.395 215.608 459.961 215.519 459.514 215.445Z" fill="#000000" fill-opacity="0.87"/><path d="M457.131 215.825C457.561 215.852 457.988 215.89 458.401 215.939L458.476 215.298C458.051 215.248 457.613 215.208 457.172 215.181Z" fill="#000000" fill-opacity="0.87"/></g></svg>