<svg width="1538" height="1572" xmlns="http://www.w3.org/2000/svg" xmlns:xlink="http://www.w3.org/1999/xlink" xml:space="preserve" overflow="hidden"><g transform="translate(-1440 -419)"><g><g><g><path d="M189.915 277.206 109.553 170.391 24.4811 170.391 67.7294 107.335 0.0468349 0.0431952 111.902 61.2187 165.935 5.22045 166.874 106.864 257.111 171.331 183.324 169.45Z" fill="#ED1C24" fill-rule="evenodd" transform="matrix(1.00005 0 0 -1 2322.2 1354.16)"/><path d="M0.0406458 22.6747 562.943 22.6747C590.347 23.2033 601.039 12.5972 613.162 0.0406599 621.329 69.1341 590.959 89.7586 548.31 89.0366L1.01738 89.0366ZM1240.93 22.6747 678.017 22.6747C650.627 23.2033 639.928 12.5972 627.806 0.0406599 619.635 69.1341 650.017 89.7586 692.659 89.0366L1239.95 89.0366ZM1240.93 104.077 704.359 104.077C658.136 106.73 631.231 92.6368 620.687 81.119 620.594 81.3863 620.515 81.6501 620.439 81.9137 620.388 81.6501 620.34 81.3863 620.282 81.119 609.739 92.6368 582.838 106.73 536.611 104.077L0.0406458 104.077 1.01738 118.895 548.31 118.895C585.686 119.29 614.371 111.901 619.976 94.0081 624.801 111.554 655.43 119.289 692.659 118.895L1239.95 118.895ZM112.18 262.291C285.459 146.39 508.153 288.14 766.913 617.953 786.998 629.29 807.066 640.628 827.152 651.965L827.152 606.292C555.549 182.072 221.541 53.2312 112.18 262.291ZM536.1 1387.44C207.381 980.735 13.0682 247.828 377.553 282.2 162.305 169.305 69.268 268.982 83.584 458.972 131.807 818.592 298.495 1120.34 536.1 1387.44ZM832.174 493.639 832.174 679.815 892.929 619.437 892.929 493.639ZM1084.17 493.641 1084.17 748.194 1004.41 748.194 1004.41 800.018 1218.01 800.018 1218.01 748.194 1138.44 748.194 1138.44 493.641ZM602.975 493.641 602.975 748.194 523.218 748.194 523.218 800.018 736.817 800.018 736.817 748.194 657.244 748.194 657.244 493.641ZM265.32 493.641 265.32 800.018 362.821 800.018C399.905 800.018 423.989 798.484 435.074 795.417 452.18 790.801 466.58 780.683 478.282 765.045 489.983 749.406 495.832 729.579 495.832 705.562 495.832 686.711 492.512 670.864 485.876 658.016 479.238 645.17 470.756 635.15 460.425 627.959 450.091 620.768 438.564 615.705 425.837 612.772L414.136 610.68 401.615 609.84 382.731 609.214 326.079 609.214 326.079 493.641ZM326.079 748.194 326.079 661.252 359.332 661.252C383.278 661.252 399.049 662.682 406.644 665.538 414.239 668.392 420.569 673.409 425.632 680.584 430.696 687.76 433.226 695.874 433.226 704.932 433.226 716.216 430.113 725.377 423.886 732.414 417.661 739.449 409.415 744.012 399.153 746.103L382.526 747.565 355.432 748.194ZM431.621 1196.45C548.358 1335.76 643.15 1449.57 759.17 1497.57 813.09 1519.88 933.271 1535.67 998.109 1432.06 1037.62 1361.34 1070.27 1213.24 980.198 884.734 1056.92 1005.63 1105.83 1248.22 1084.07 1375.05 1052.11 1518.2 975.974 1588.48 865.226 1567.26 723.145 1541.4 576.35 1423.67 431.621 1196.45Z" fill="#ED1C24" fill-rule="evenodd" transform="matrix(1.00005 0 0 -1 1588 1991)"/></g></g></g></g></svg>