<svg width="24" height="24" xmlns="http://www.w3.org/2000/svg" xmlns:xlink="http://www.w3.org/1999/xlink" xml:space="preserve" overflow="hidden"><g transform="translate(-366 -284)"><path d="M388.65 293.075 387.35 292.6 387.35 289.875 388.65 289.325 379.85 286.075 369.15 289.825C368.125 290.325 368.1 291.7 368.1 292.825 368.1 293.2 368.15 293.575 368.225 293.925 367.375 294.475 367.35 295.75 367.35 296.825 367.35 297.7 367.55 298.5 368.1 299 367.975 299.425 368.05 299.95 368.05 300.575 368.05 301.7 368.35 302.725 369.35 303.075L376.3 305.95 388.6 300.85 387.3 300.375 387.3 297.625 388.6 297.075 386.6 296.325 386.6 293.925 388.65 293.075ZM369.45 291.575 376.4 294.3 386.375 290.275 386.375 292.425 376.4 296.575 369.45 293.825 369.45 291.575ZM386.325 300.2 376.35 304.325 369.375 301.575 369.375 299.625 375.6 302.175 386.35 297.925 386.325 300.2ZM385.625 296.45 375.65 300.575 368.7 297.825 368.7 295.575 375.85 298.425 385.65 294.325 385.65 296.45Z" fill="#0D0D0D"/></g></svg>