<svg width="47" height="47" xmlns="http://www.w3.org/2000/svg" xmlns:xlink="http://www.w3.org/1999/xlink" xml:space="preserve" overflow="hidden"><g transform="translate(-1034 -589)"><path d="M1072.19 621.117 1065.49 610.434C1065.37 610.238 1065.15 610.119 1064.92 610.121 1064.69 610.121 1064.48 610.239 1064.35 610.434L1062.4 613.577 1066.6 620.372C1066.95 620.91 1067.03 621.585 1066.8 622.189L1071.55 622.189C1071.94 622.208 1072.27 621.909 1072.29 621.52 1072.3 621.378 1072.26 621.238 1072.19 621.117Z" fill="#EC131C"/><path d="M1064.89 621.18 1054.24 603.854C1054.11 603.677 1053.89 603.577 1053.67 603.585L1053.58 603.585 1053.5 603.585C1053.27 603.577 1053.06 603.677 1052.92 603.854L1042.27 621.18C1042.12 621.391 1042.1 621.669 1042.22 621.9 1042.34 622.109 1042.57 622.224 1042.81 622.189L1064.35 622.189C1064.59 622.224 1064.83 622.109 1064.95 621.9 1065.06 621.669 1065.04 621.391 1064.89 621.18ZM1055.37 611.971 1053.67 613.479 1051.98 611.971 1049.18 613.665 1053.58 606.522 1057.87 613.479Z" fill="#EC131C"/><path d="M1048.69 604.667C1048.69 605.478 1048.03 606.135 1047.22 606.135 1046.41 606.135 1045.75 605.478 1045.75 604.667 1045.75 603.855 1046.41 603.198 1047.22 603.198 1048.03 603.198 1048.69 603.855 1048.69 604.667Z" fill="#EC131C"/><path d="M1040.85 625.229 1040.85 600.75 1074.15 600.75 1074.15 625.229ZM1077.08 628.167 1077.08 597.812 1037.92 597.812 1037.92 628.167Z" fill="#EC131C"/></g></svg>