<svg width="138" height="137" xmlns="http://www.w3.org/2000/svg" xmlns:xlink="http://www.w3.org/1999/xlink" xml:space="preserve" overflow="hidden"><defs><clipPath id="clip0"><rect x="743" y="611" width="138" height="137"/></clipPath></defs><g clip-path="url(#clip0)" transform="translate(-743 -611)"><rect x="743" y="611" width="138" height="137" fill="#FFFFFF"/><g><g><g><path d="M39.2625 29.25 68.5125 29.25 68.5125 33.75 39.2625 33.75Z" fill="#EC131C" transform="matrix(1 0 0 1.00926 758 625)"/><path d="M39.2625 38.25 68.5125 38.25 68.5125 42.75 39.2625 42.75Z" fill="#EC131C" transform="matrix(1 0 0 1.00926 758 625)"/><path d="M39.2625 47.25 68.5125 47.25 68.5125 51.75 39.2625 51.75Z" fill="#EC131C" transform="matrix(1 0 0 1.00926 758 625)"/><path d="M93.3749 94.0499 70.875 72.6749 93.3749 51.3 93.3749 94.0499ZM20.475 96.7499 42.75 75.7125 44.325 74.25C50.4 68.5125 59.9625 68.5125 66.0375 74.25L67.6125 75.7125 89.7749 96.7499 20.475 96.7499ZM16.875 51.1875 39.375 72.5625 16.875 93.9374 16.875 51.1875ZM32.625 22.5 77.625 22.5 77.625 59.9625 67.5 69.6375C60.1875 64.0125 50.0625 64.0125 42.75 69.6375L32.625 59.9625 32.625 22.5ZM84.3749 25.5375 84.3749 15.75 68.625 15.75 55.125 4.5 41.625 15.75 25.875 15.75 25.875 25.65 10.125 40.6125 10.125 103.5 100.125 103.5 100.125 40.6125 84.3749 25.5375Z" fill="#EC131C" transform="matrix(1 0 0 1.00926 758 625)"/></g></g></g></g></svg>