<svg width="475" height="472" xmlns="http://www.w3.org/2000/svg" xmlns:xlink="http://www.w3.org/1999/xlink" xml:space="preserve" overflow="hidden"><g transform="translate(-90 -446)"><path d="M90.7322 446.779 564.732 446.779 564.732 917.78 90.7322 917.78Z" fill="#FFFFFF" fill-rule="evenodd"/><path d="M277.005 597.005 378.006 597.005 378.006 613.005 277.005 613.005Z" fill-rule="evenodd"/><path d="M277.005 628.005 378.006 628.005 378.006 644.005 277.005 644.005Z" fill-rule="evenodd"/><path d="M277.005 660.005 378.006 660.005 378.006 675.005 277.005 675.005Z" fill-rule="evenodd"/><path d="M463.755 822.169 386.256 747.896 463.755 673.623 463.755 822.169ZM212.656 831.55 289.38 758.451 294.805 753.369C315.73 733.433 348.668 733.433 369.593 753.369L375.018 758.451 451.355 831.55 212.656 831.55ZM200.256 673.233 277.755 747.505 200.256 821.778 200.256 673.233ZM254.506 573.551 409.506 573.551 409.506 703.724 374.631 737.342C349.443 717.796 314.568 717.796 289.38 737.342L254.506 703.724 254.506 573.551ZM432.755 584.105 432.755 550.096 378.506 550.096 332.005 511.006 285.506 550.096 231.256 550.096 231.256 584.496 177.005 636.487 177.005 855.005 487.005 855.005 487.005 636.487 432.755 584.105Z" fill-rule="evenodd"/></g></svg>