<svg width="3218" height="1486" xmlns="http://www.w3.org/2000/svg" xmlns:xlink="http://www.w3.org/1999/xlink" xml:space="preserve" overflow="hidden"><g transform="translate(-422 -369)"><path d="M179.525 262.041 103.56 161.069 23.1418 161.069 64.0241 101.463 0.0442727 0.0408321 105.78 57.8696 156.857 4.93485 157.745 101.018 243.045 161.958 173.295 160.18Z" fill="#ED1C24" fill-rule="evenodd" transform="matrix(1 0 0 -1 1115 1252)"/><path d="M0.0384222 21.4342 532.146 21.4342C558.051 21.9339 568.158 11.908 579.618 0.0384355 587.338 65.352 558.629 84.8481 518.313 84.1656L0.961721 84.1656ZM1173.04 21.4342 640.924 21.4342C615.033 21.9339 604.919 11.908 593.46 0.0384355 585.736 65.352 614.456 84.8481 654.765 84.1656L1172.12 84.1656ZM1173.04 98.3832 665.825 98.3832C622.131 100.891 596.698 87.5689 586.731 76.6812 586.643 76.9339 586.568 77.1832 586.496 77.4324 586.448 77.1832 586.403 76.9339 586.348 76.6812 576.382 87.5689 550.952 100.891 507.254 98.3832L0.0384222 98.3832 0.961721 112.391 518.313 112.391C553.645 112.764 580.76 105.779 586.059 88.8652 590.62 105.451 619.573 112.763 654.765 112.391L1172.12 112.391ZM106.043 247.942C269.842 138.381 480.353 272.377 724.957 584.146 743.943 594.863 762.914 605.581 781.901 616.298L781.901 573.123C525.156 172.111 209.421 50.3191 106.043 247.942ZM506.771 1311.54C196.036 927.082 12.3533 234.27 356.898 266.762 153.426 160.043 65.4785 254.267 79.0113 433.863 124.596 773.809 282.165 1059.05 506.771 1311.54ZM786.648 466.633 786.648 642.624 844.079 585.549 844.079 466.633ZM1024.86 466.635 1024.86 707.262 949.464 707.262 949.464 756.251 1151.38 756.251 1151.38 707.262 1076.16 707.262 1076.16 466.635ZM569.988 466.635 569.988 707.262 494.594 707.262 494.594 756.251 696.508 756.251 696.508 707.262 621.288 707.262 621.288 466.635ZM250.805 466.635 250.805 756.251 342.972 756.251C378.027 756.251 400.794 754.801 411.272 751.902 427.442 747.538 441.055 737.974 452.116 723.191 463.177 708.408 468.706 689.666 468.706 666.963 468.706 649.143 465.568 634.163 459.295 622.018 453.02 609.874 445.002 600.403 435.236 593.605 425.468 586.807 414.571 582.021 402.541 579.249L391.48 577.271 379.644 576.477 361.793 575.885 308.24 575.885 308.24 466.635ZM308.24 707.262 308.24 625.077 339.674 625.077C362.31 625.077 377.218 626.428 384.398 629.128 391.577 631.826 397.561 636.569 402.347 643.351 407.134 650.134 409.525 657.805 409.525 666.367 409.525 677.034 406.583 685.694 400.696 692.346 394.812 698.996 387.017 703.309 377.316 705.286L361.599 706.668 335.987 707.262ZM408.008 1131C518.359 1262.68 607.965 1370.27 717.638 1415.64 768.608 1436.73 882.214 1451.66 943.505 1353.72 980.856 1286.86 1011.72 1146.87 926.574 836.333 999.103 950.615 1045.33 1179.93 1024.76 1299.82 994.548 1435.14 922.581 1501.58 817.892 1481.52 683.584 1457.07 544.819 1345.78 408.008 1131Z" fill="#ED1C24" fill-rule="evenodd" transform="matrix(1 0 0 -1 422 1855)"/><text fill="#ED1C24" font-family="Open Sans,Open Sans_MSFontService,sans-serif" font-weight="700" font-size="367" transform="matrix(1 0 0 1 1877.33 1088)">PTIT</text><text fill="#ED1C24" font-family="Open Sans,Open Sans_MSFontService,sans-serif" font-weight="700" font-size="367" transform="matrix(1 0 0 1 1877.33 1528)">LIBRARY</text></g></svg>