<svg width="5035" height="2088" xmlns="http://www.w3.org/2000/svg" xmlns:xlink="http://www.w3.org/1999/xlink" xml:space="preserve" overflow="hidden"><g transform="translate(-100 -179)"><rect x="100" y="294" width="1682" height="1683" fill="#ED1C24"/><path d="M179.525 261.041 103.56 160.454 23.1418 160.454 64.0241 101.076 0.0442727 0.0406763 105.78 57.6487 156.857 4.91602 157.745 100.632 243.045 161.34 173.295 159.568Z" fill="#FFFFFF" fill-rule="evenodd" transform="matrix(1 0 0 -1 1048 1275)"/><path d="M0.038455 21.4342 532.6 21.4342C558.526 21.9339 568.642 11.908 580.112 0.0384355 587.838 65.352 559.105 84.8481 518.755 84.1656L0.96254 84.1656ZM1174.04 21.4342 641.47 21.4342C615.557 21.9339 605.434 11.908 593.966 0.0384355 586.235 65.352 614.979 84.8481 655.323 84.1656L1173.12 84.1656ZM1174.04 98.3832 666.393 98.3832C622.661 100.891 597.206 87.5689 587.231 76.6812 587.143 76.9339 587.068 77.1832 586.996 77.4324 586.948 77.1832 586.903 76.9339 586.848 76.6812 576.873 87.5689 551.422 100.891 507.686 98.3832L0.038455 98.3832 0.96254 112.391 518.755 112.391C554.117 112.764 581.256 105.779 586.559 88.8652 591.123 105.451 620.101 112.763 655.323 112.391L1173.12 112.391ZM106.133 247.942C270.072 138.381 480.762 272.377 725.575 584.146 744.577 594.863 763.565 605.581 782.568 616.298L782.568 573.123C525.604 172.111 209.6 50.3191 106.133 247.942ZM507.203 1311.54C196.203 927.082 12.3639 234.27 357.203 266.762 153.557 160.043 65.5343 254.267 79.0786 433.863 124.703 773.809 282.405 1059.05 507.203 1311.54ZM787.318 466.633 787.318 642.624 844.798 585.549 844.798 466.633ZM1025.73 466.635 1025.73 707.262 950.273 707.262 950.273 756.251 1152.36 756.251 1152.36 707.262 1077.07 707.262 1077.07 466.635ZM570.474 466.635 570.474 707.262 495.016 707.262 495.016 756.251 697.102 756.251 697.102 707.262 621.817 707.262 621.817 466.635ZM251.019 466.635 251.019 756.251 343.265 756.251C378.349 756.251 401.136 754.801 411.622 751.902 427.806 747.538 441.431 737.974 452.501 723.191 463.572 708.408 469.106 689.666 469.106 666.963 469.106 649.143 465.965 634.163 459.686 622.018 453.407 609.874 445.381 600.403 435.607 593.605 425.831 586.807 414.925 582.021 402.884 579.249L391.813 577.271 379.968 576.477 362.102 575.885 308.502 575.885 308.502 466.635ZM308.502 707.262 308.502 625.077 339.963 625.077C362.619 625.077 377.54 626.428 384.726 629.128 391.911 631.826 397.9 636.569 402.69 643.351 407.481 650.134 409.874 657.805 409.874 666.367 409.874 677.034 406.93 685.694 401.038 692.346 395.149 698.996 387.347 703.309 377.638 705.286L361.907 706.668 336.274 707.262ZM408.356 1131C518.801 1262.68 608.483 1370.27 718.25 1415.64 769.263 1436.73 882.967 1451.66 944.309 1353.72 981.692 1286.86 1012.58 1146.87 927.363 836.333 999.955 950.615 1046.22 1179.93 1025.63 1299.82 995.396 1435.14 923.368 1501.58 818.589 1481.52 684.167 1457.07 545.284 1345.78 408.356 1131Z" fill="#FFFFFF" fill-rule="evenodd" transform="matrix(1 0 0 -1 354 1878)"/><text fill="#ED1C24" font-family="Open Sans,Open Sans_MSFontService,sans-serif" font-weight="700" font-size="633" transform="matrix(1 0 0 1 2097.11 965)">PTIT</text><text fill="#ED1C24" font-family="Open Sans,Open Sans_MSFontService,sans-serif" font-weight="700" font-size="633" transform="matrix(1 0 0 1 2097.11 1724)">LIBRARY</text></g></svg>