<svg width="33" height="32" xmlns="http://www.w3.org/2000/svg" xmlns:xlink="http://www.w3.org/1999/xlink" xml:space="preserve" overflow="hidden"><g transform="translate(-892 -164)"><path d="M14 9 19.3333 9 19.3333 8C19.3333 7.26667 18.7333 6.66667 18 6.66667L4 6.66667C3.26667 6.66667 2.66667 7.26667 2.66667 8L2.66667 17C2.66667 17.7333 3.26667 18.3333 4 18.3333L6 18.3333 6 21.6667 9.33333 18.3333 11.3333 18.3333 11.3333 11.6667C11.3333 10.2 12.5333 9 14 9Z" fill="#ED1C24" fill-opacity="0.75" transform="matrix(1.03125 0 0 1 892 164)"/><path d="M28 10.3333 14 10.3333C13.2667 10.3333 12.6667 10.9333 12.6667 11.6667L12.6667 20.6667C12.6667 21.4 13.2667 22 14 22L22.6667 22 26 25.3333 26 22 28 22C28.7333 22 29.3333 21.4 29.3333 20.6667L29.3333 11.6667C29.3333 10.9333 28.7333 10.3333 28 10.3333Z" fill="#ED1C24" fill-opacity="0.75" transform="matrix(1.03125 0 0 1 892 164)"/></g></svg>