<svg width="117" height="117" xmlns="http://www.w3.org/2000/svg" xmlns:xlink="http://www.w3.org/1999/xlink" xml:space="preserve" overflow="hidden"><defs><clipPath id="clip0"><rect x="3060" y="744" width="117" height="117"/></clipPath></defs><g clip-path="url(#clip0)" transform="translate(-3060 -744)"><path d="M3060 802.5C3060 770.191 3086.19 744 3118.5 744 3150.81 744 3177 770.191 3177 802.5 3177 834.809 3150.81 861 3118.5 861 3086.19 861 3060 834.809 3060 802.5Z" fill="#92D050" fill-rule="evenodd" fill-opacity="0.8"/><g><g><g><path d="M28.7491 68.0328 10.4964 49.7801 15.0035 45.2719 28.7491 59.0164 60.2702 27.4964 64.7773 32.0035 28.7491 68.0328Z" fill="#FFFFFF" transform="matrix(1 0 0 1 3070 752)"/><path d="M55.0724 49.9374 79.5099 49.9374 79.5099 56.3124 55.0724 56.3124Z" fill="#FFFFFF" transform="matrix(1 0 0 1 3070 752)"/><path d="M66.7599 38.2499 91.1973 38.2499 91.1973 44.6249 66.7599 44.6249Z" fill="#FFFFFF" transform="matrix(1 0 0 1 3070 752)"/><path d="M43.385 61.6248 67.8224 61.6248 67.8224 67.9998 43.385 67.9998Z" fill="#FFFFFF" transform="matrix(1 0 0 1 3070 752)"/></g></g></g></g></svg>