<svg width="24" height="21" xmlns="http://www.w3.org/2000/svg" xmlns:xlink="http://www.w3.org/1999/xlink" xml:space="preserve" overflow="hidden"><g transform="translate(-1034 -84)"><path d="M2.5 5.25 2.5 18.75 21.5 18.75 21.5 5.25ZM12.5305 13.866C12.237 14.1578 11.763 14.1578 11.4695 13.866L3.35775 5.75425C3.35678 5.75327 3.3568 5.75168 3.35777 5.75072 3.35825 5.75028 3.35885 5.75 3.3595 5.75L20.6405 5.75C20.6419 5.75002 20.643 5.75115 20.643 5.75252 20.643 5.75317 20.6427 5.7538 20.6423 5.75425ZM8.8965 12 3.00425 17.8923C3.00327 17.8932 3.00167 17.8932 3.00073 17.8922 3.00027 17.8918 3 17.8911 3 17.8905L3 6.1095C3.00003 6.10813 3.00115 6.10703 3.00253 6.10703 3.00318 6.10705 3.0038 6.1073 3.00425 6.10775ZM9.25 12.3535 11.116 14.2195C11.6041 14.7077 12.3955 14.7078 12.8838 14.2197 12.8839 14.2197 12.8839 14.2196 12.884 14.2195L14.75 12.3535 20.6423 18.2458C20.6432 18.2467 20.6432 18.2483 20.6422 18.2493 20.6418 18.2497 20.6411 18.25 20.6405 18.25L3.3595 18.25C3.35812 18.25 3.35702 18.2488 3.35702 18.2475 3.35705 18.2468 3.3573 18.2462 3.35775 18.2458ZM15.1035 12 20.9958 6.10775C20.9967 6.10677 20.9983 6.1068 20.9993 6.10778 20.9997 6.10825 21 6.10885 21 6.1095L21 17.8905C21 17.8919 20.9988 17.893 20.9975 17.893 20.9968 17.893 20.9962 17.8927 20.9958 17.8923Z" stroke="#0D0D0D" stroke-width="0.571442" fill="#0D0D0D" transform="matrix(1 0 0 1.0096 1034 81.0861)"/></g></svg>