<svg width="117" height="117" xmlns="http://www.w3.org/2000/svg" xmlns:xlink="http://www.w3.org/1999/xlink" xml:space="preserve" overflow="hidden"><defs><clipPath id="clip0"><rect x="3065" y="989" width="117" height="117"/></clipPath></defs><g clip-path="url(#clip0)" transform="translate(-3065 -989)"><path d="M3065 1047.5C3065 1015.19 3091.19 989 3123.5 989 3155.81 989 3182 1015.19 3182 1047.5 3182 1079.81 3155.81 1106 3123.5 1106 3091.19 1106 3065 1079.81 3065 1047.5Z" fill="#ED1C24" fill-rule="evenodd" fill-opacity="0.580392"/><g><g><g><path d="M3155.5 1015.5 3154.5 1006.5 3143.5 1017.5 3144.1 1022.7 3128.1 1038.7C3126.7 1038 3125.1 1037.5 3123.4 1037.5 3117.9 1037.5 3113.4 1042 3113.4 1047.5 3113.4 1053 3117.9 1057.5 3123.4 1057.5 3128.9 1057.5 3133.4 1053 3133.4 1047.5 3133.4 1045.8 3133 1044.3 3132.3 1042.9L3148.3 1026.9 3153.5 1027.5 3164.5 1016.5 3155.5 1015.5Z" fill="#FFFFFF" fill-opacity="0.9"/><path d="M3156.3 1030.3 3155 1031.7 3153.1 1031.5 3151 1031.2C3153.8 1036 3155.5 1041.5 3155.5 1047.5 3155.5 1065.1 3141.1 1079.5 3123.5 1079.5 3105.9 1079.5 3091.5 1065.1 3091.5 1047.5 3091.5 1029.9 3105.9 1015.5 3123.5 1015.5 3129.4 1015.5 3135 1017.1 3139.8 1020L3139.6 1018 3139.3 1016 3140.7 1014.6 3141.4 1013.9C3136 1011.1 3130 1009.5 3123.5 1009.5 3102.5 1009.5 3085.5 1026.5 3085.5 1047.5 3085.5 1068.5 3102.5 1085.5 3123.5 1085.5 3144.5 1085.5 3161.5 1068.5 3161.5 1047.5 3161.5 1041 3159.9 1035 3157 1029.7L3156.3 1030.3Z" fill="#FFFFFF" fill-opacity="0.9"/><path d="M3140.2 1040.7C3141.1 1042.8 3141.5 1045.1 3141.5 1047.5 3141.5 1057.4 3133.4 1065.5 3123.5 1065.5 3113.6 1065.5 3105.5 1057.4 3105.5 1047.5 3105.5 1037.6 3113.6 1029.5 3123.5 1029.5 3125.9 1029.5 3128.2 1030 3130.3 1030.8L3134.8 1026.3C3131.4 1024.5 3127.6 1023.5 3123.5 1023.5 3110.3 1023.5 3099.5 1034.3 3099.5 1047.5 3099.5 1060.7 3110.3 1071.5 3123.5 1071.5 3136.7 1071.5 3147.5 1060.7 3147.5 1047.5 3147.5 1043.4 3146.5 1039.6 3144.7 1036.2L3140.2 1040.7Z" fill="#FFFFFF" fill-opacity="0.9"/></g></g></g></g></svg>