<svg width="86" height="82" xmlns="http://www.w3.org/2000/svg" xmlns:xlink="http://www.w3.org/1999/xlink" xml:space="preserve" overflow="hidden"><defs><clipPath id="clip0"><rect x="3556" y="279" width="86" height="82"/></clipPath></defs><g clip-path="url(#clip0)" transform="translate(-3556 -279)"><g><g><g><path d="M3564.54 296.938 3564.54 343.062 3629.46 343.062 3629.46 296.938ZM3598.81 326.376C3597.81 327.372 3596.19 327.372 3595.19 326.376L3567.47 298.66C3567.47 298.657 3567.47 298.652 3567.47 298.648 3567.47 298.647 3567.48 298.646 3567.48 298.646L3626.52 298.646C3626.53 298.646 3626.53 298.65 3626.53 298.655 3626.53 298.657 3626.53 298.659 3626.53 298.66ZM3586.4 320 3566.26 340.132C3566.26 340.135 3566.26 340.135 3566.25 340.132 3566.25 340.13 3566.25 340.128 3566.25 340.126L3566.25 299.874C3566.25 299.87 3566.25 299.866 3566.26 299.866 3566.26 299.866 3566.26 299.867 3566.26 299.868ZM3587.6 321.208 3593.98 327.583C3595.65 329.251 3598.35 329.252 3600.02 327.584 3600.02 327.584 3600.02 327.584 3600.02 327.583L3606.4 321.208 3626.53 341.34C3626.53 341.343 3626.53 341.348 3626.53 341.352 3626.53 341.353 3626.52 341.354 3626.52 341.354L3567.48 341.354C3567.47 341.354 3567.47 341.35 3567.47 341.346 3567.47 341.343 3567.47 341.341 3567.47 341.34ZM3607.6 320 3627.74 299.868C3627.74 299.865 3627.74 299.865 3627.75 299.868 3627.75 299.87 3627.75 299.872 3627.75 299.874L3627.75 340.126C3627.75 340.131 3627.75 340.134 3627.74 340.134 3627.74 340.134 3627.74 340.133 3627.74 340.132Z" stroke="#0D0D0D" stroke-width="1.95242" fill="#0D0D0D"/></g></g></g><path d="M3616 299C3616 291.82 3621.82 286 3629 286 3636.18 286 3642 291.82 3642 299 3642 306.18 3636.18 312 3629 312 3621.82 312 3616 306.18 3616 299Z" fill="#ED1C24" fill-rule="evenodd"/></g></svg>