<svg width="118" height="117" xmlns="http://www.w3.org/2000/svg" xmlns:xlink="http://www.w3.org/1999/xlink" xml:space="preserve" overflow="hidden"><defs><clipPath id="clip0"><rect x="3073" y="1260" width="118" height="117"/></clipPath></defs><g clip-path="url(#clip0)" transform="translate(-3073 -1260)"><path d="M3073 1318.5C3073 1286.19 3099.42 1260 3132 1260 3164.58 1260 3191 1286.19 3191 1318.5 3191 1350.81 3164.58 1377 3132 1377 3099.42 1377 3073 1350.81 3073 1318.5Z" fill="#F2AA84" fill-rule="evenodd"/><g><g><g><path d="M3158.63 1335 3134.19 1292.5C3133.25 1290.81 3130.81 1290.81 3129.88 1292.5L3105.38 1335C3104.44 1336.69 3105.62 1338.75 3107.56 1338.75L3132 1338.75 3156.44 1338.75C3158.38 1338.75 3159.56 1336.69 3158.63 1335ZM3130.12 1302.5 3133.88 1302.5 3133.88 1324.38 3130.12 1324.38 3130.12 1302.5ZM3132 1333.12C3130.25 1333.12 3128.88 1331.75 3128.88 1330 3128.88 1328.25 3130.25 1326.88 3132 1326.88 3133.75 1326.88 3135.12 1328.25 3135.12 1330 3135.12 1331.75 3133.75 1333.12 3132 1333.12Z" fill="#FFFFFF"/></g></g></g></g></svg>