<svg width="17" height="17" xmlns="http://www.w3.org/2000/svg" xmlns:xlink="http://www.w3.org/1999/xlink" xml:space="preserve" overflow="hidden"><g transform="translate(-201 -274)"><path d="M209.498 275.771C205.783 275.771 202.772 278.782 202.772 282.496 202.772 286.211 205.783 289.222 209.498 289.222 213.212 289.222 216.223 286.211 216.223 282.496 216.223 282.496 216.223 282.496 216.223 282.496 216.224 278.783 213.216 275.772 209.503 275.771 209.501 275.771 209.499 275.771 209.498 275.771ZM212.795 283.095 210.096 283.095 210.096 285.793 208.899 285.793 208.899 283.094 206.2 283.094 206.2 281.897 208.899 281.897 208.899 279.198 210.096 279.198 210.096 281.897 212.795 281.897Z"/></g></svg>