<svg width="21" height="21" xmlns="http://www.w3.org/2000/svg" xmlns:xlink="http://www.w3.org/1999/xlink" xml:space="preserve" overflow="hidden"><g transform="translate(-443 -274)"><path d="M461.703 290.538 458.969 287.803C458.597 287.431 458.094 287.3 457.612 287.388L456.65 286.425C457.503 285.331 458.006 283.931 458.006 282.444 458.006 278.834 455.053 275.881 451.444 275.881 447.834 275.881 444.881 278.834 444.881 282.444 444.881 286.053 447.834 289.006 451.444 289.006 452.931 289.006 454.309 288.503 455.425 287.65L456.388 288.612C456.3 289.094 456.431 289.597 456.803 289.969L459.538 292.703C459.844 293.009 460.237 293.163 460.631 293.163 461.025 293.163 461.419 293.009 461.725 292.703 462.294 292.091 462.294 291.128 461.703 290.538ZM451.422 287.672C448.534 287.672 446.172 285.309 446.172 282.422 446.172 279.534 448.534 277.172 451.422 277.172 454.309 277.172 456.672 279.534 456.672 282.422 456.672 285.309 454.309 287.672 451.422 287.672Z"/></g></svg>