<svg width="137" height="137" xmlns="http://www.w3.org/2000/svg" xmlns:xlink="http://www.w3.org/1999/xlink" xml:space="preserve" overflow="hidden"><g transform="translate(-1024 -628)"><rect x="1024" y="628" width="137" height="137" fill="#FFFFFF"/><g><g><g><path d="M109.688 26.7188C111.241 26.7188 112.5 27.9779 112.5 29.5313L112.5 85.7813C112.5 87.3347 111.241 88.5938 109.688 88.5938L92.8126 88.5938 92.8126 104.304 78.6291 90.121 77.8051 89.2969 25.3125 89.2969C23.7592 89.2969 22.5 88.0378 22.5 86.4844L22.5 29.5313C22.5 27.9779 23.7592 26.7188 25.3125 26.7188L109.688 26.7188M109.688 23.9063 25.3125 23.9063C22.206 23.9063 19.6875 26.4247 19.6875 29.5313L19.6875 86.4844C19.6875 89.591 22.206 92.1094 25.3125 92.1094L76.6407 92.1094 95.6251 111.094 95.6251 91.4063 109.688 91.4063C112.794 91.4063 115.313 88.8879 115.313 85.7813L115.313 29.5313C115.313 26.4247 112.794 23.9063 109.688 23.9063Z" stroke="#000000" stroke-width="2.49993" transform="matrix(-1 0 0 1 1160 629)"/><path d="M94.2188 57.6563C94.2188 59.9862 92.33 61.875 90.0001 61.875 87.6701 61.875 85.7813 59.9862 85.7813 57.6563 85.7813 55.3263 87.6701 53.4375 90.0001 53.4375 92.33 53.4375 94.2188 55.3263 94.2188 57.6563Z" stroke="#000000" stroke-width="2.49993" transform="matrix(-1 0 0 1 1160 629)"/><path d="M71.7188 57.6563C71.7188 59.9862 69.83 61.875 67.5001 61.875 65.1701 61.875 63.2813 59.9862 63.2813 57.6563 63.2813 55.3263 65.1701 53.4375 67.5001 53.4375 69.83 53.4375 71.7188 55.3263 71.7188 57.6563Z" stroke="#000000" stroke-width="2.49993" transform="matrix(-1 0 0 1 1160 629)"/><path d="M49.2188 57.6563C49.2188 59.9862 47.33 61.875 45 61.875 42.6701 61.875 40.7813 59.9862 40.7813 57.6563 40.7813 55.3263 42.6701 53.4375 45 53.4375 47.33 53.4375 49.2188 55.3263 49.2188 57.6563Z" stroke="#000000" stroke-width="2.49993" transform="matrix(-1 0 0 1 1160 629)"/></g></g></g></g></svg>