<svg width="38" height="39" xmlns="http://www.w3.org/2000/svg" xmlns:xlink="http://www.w3.org/1999/xlink" xml:space="preserve" overflow="hidden"><g transform="translate(-304 -175)"><path d="M6.8875 6.72917C6.13985 6.73352 5.53731 7.34314 5.54167 8.09079 5.54167 8.09079 5.54167 8.09083 5.54167 8.09083L5.54167 24.4546 5.54167 24.4546C5.53727 25.2022 6.13981 25.8119 6.88746 25.8163 6.88746 25.8163 6.8875 25.8163 6.8875 25.8163L10.925 25.8163 10.925 31.2708 16.3083 25.8163 31.1125 25.8163C31.8602 25.8119 32.4627 25.2023 32.4583 24.4546 32.4583 24.4546 32.4583 24.4546 32.4583 24.4546L32.4583 8.09083 32.4583 8.09083C32.4627 7.34318 31.8602 6.73356 31.1125 6.72917 31.1125 6.72917 31.1125 6.72917 31.1125 6.72917ZM23.3542 16.2292C23.3542 15.1361 24.2403 14.25 25.3333 14.25 26.4264 14.25 27.3125 15.1361 27.3125 16.2292 27.3125 17.3222 26.4264 18.2083 25.3333 18.2083 24.2403 18.2083 23.3542 17.3222 23.3542 16.2292ZM17.0208 16.2292C17.0208 15.1361 17.9069 14.25 19 14.25 20.0931 14.25 20.9792 15.1361 20.9792 16.2292 20.9792 17.3222 20.0931 18.2083 19 18.2083 17.9069 18.2083 17.0208 17.3222 17.0208 16.2292ZM10.6875 16.2292C10.6875 15.1361 11.5736 14.25 12.6667 14.25 13.7597 14.25 14.6458 15.1361 14.6458 16.2292 14.6458 17.3222 13.7597 18.2083 12.6667 18.2083 11.5736 18.2083 10.6875 17.3222 10.6875 16.2292Z" fill="#EC131C" transform="matrix(1 0 0 1.02632 304 175)"/></g></svg>